<svg xmlns="http://www.w3.org/2000/svg" id="Camada_2" data-name="Camada 2" viewBox="0 0 118.27 30.6"><defs><style>      .cls-1 {        fill: #e6e6e6;      }    </style></defs><g id="Camada_2-2" data-name="Camada 2"><g><rect class="cls-1" x="43.96" y="27.77" width="74.3" height="2.83" rx=".65" ry=".65"></rect><g><g><path class="cls-1" d="M12.54,23.93h0c-3.21-4.2-4.22-8.59-3.99-13.72.05-1.05.24-2.11.4-2.89h0c.32-1.66.79-3.3,1.41-4.91,1.72.73,5.81,2.73,9.37,6.24-1.33,1.51-2.43,3.11-3.3,4.8,0,0-2.51-2.26-6.43-3.64-.07.65-.09,1.35-.07,2,5.73,2.49,9.56,6.79,11.03,9.27.03-.04.06-.08.1-.13-.1-.19-.09-.43.02-.61.76-1.27,1.97-4.13,2.8-5.48-1.06.95-2.02,1.97-2.89,3.08-.93-1.18-1.94-2.26-3.08-3.25,1.48-3.04,4.13-6.05,5.39-7.03h0c1.2-1.06,2.42-1.96,3.57-2.71-.17-.72-.32-1.4-.33-1.8,0-.08,0-.16.02-.23-2.09,1.29-3.98,2.77-5.58,4.33-3.03-2.98-7.12-5.66-11.69-7.26-1.14,2.79-2.07,5.39-2.48,8.75-3.5-.91-5.5-.65-6.39-.58-.96,5.06-.23,10.82,2.86,15.04,4.37,5.96,11.32,6.41,14.9,6.94-1.5-1.46-4.91-5.28-5.63-6.22h0ZM4.78,22.1c-3.27-4.46-2.99-10.15-2.77-12.14h.04c1.36,0,2.93.24,4.59.69-.39,8.28,3.52,13.83,6.32,16.7-3.57-.95-6.31-2.72-8.18-5.25h0Z"></path><path class="cls-1" d="M29.76,28.39c-1.81-.39-2.28-.98-2.45-2.05-1.09,1.25-2.44,2.73-3.55,3.81,1.81-.26,4.48-.51,7.26-1.47-.4-.1-.82-.2-1.25-.29h0Z"></path><path class="cls-1" d="M24.46,24.16c-.55-.4-1.05-.81-1.48-1.2-.61.71-1.3,1.42-2.02,2.01-2.22-1.84-4.09-4.7-4.67-5.62.1-.51.19-.95.33-1.45-.44-.44-.99-.9-1.55-1.34-.37,1.11-.56,2.08-.75,3.14,2.23,4.07,4.7,6.1,6.61,7.63,1.04-.83,2.3-1.86,3.53-3.18Z"></path></g><g><path class="cls-1" d="M41.64,9.97c-.24-1.26-1.46-2.09-2.72-1.84-1.26.24-2.09,1.46-1.85,2.72.15.79.68,1.42,1.38,1.7.41.17.86.23,1.34.14.08,0,.16-.03.24-.06,1.12-.34,1.83-1.48,1.61-2.66h0ZM39.74,12.41c-1.11.21-2.18-.52-2.39-1.63s.52-2.18,1.63-2.39,2.18.52,2.39,1.63-.52,2.18-1.63,2.39Z"></path><path class="cls-1" d="M36.38,19.33c.75-1.34.78-2.26.48-2.95-.31-.69-1.13-1.26-2.31-1.86-.8-.42-1.24-1.33-1.24-1.33.46.52,1.05.93,1.26,1.02.14-.5-.03-1.28-.2-1.43-.16-.15-1.25-.81-1.25-.81-.25-.4-.36-1.5-.36-1.5-.33-.26-1.18-1.08-1.29-2.04.3.72,1.73,2.24,2.48,2.31.56.05.65-.26.67-.42,0-.05.04-.1.08-.12l.05-.02c.06-.02.09-.09.08-.15l-.03-.16s.2,0,.36-.02c.06,0,.1-.07.09-.13-.02-.11,0-.24,0-.31,0-.04.04-.07.08-.06.17.04.38.08.56-.03.08-.05.1-.18.05-.26-.21-.35-.31-.98-.07-1.26.27-.3.33-.24.45-.6.12-.36.05-1.1.05-1.1.38-.32.06-1.46-.48-2.03s-2.81-2.44-4.09-1.81c-.18-1.09-1.66-1.85-2.03-1.81-.38.04-2.8,1.25-2.76,2.45.03,1.19,1.31,4.88.6,5.04.31.13.83-.02.89-.67.34.54-.32,1.81-1.35,1.68.29.52,1.65.64,2.42-.25-.08.73-.74,1.06-.74,1.06.48.03,1.1.53,1.53,1.17-.6-.39-1.75-.99-2.21-.61-.72-.05-2.2.56-3.36,3.61-.03.09-.08.19-.15.27-.82,1.06-2.22,4.47-3.07,5.88-.16.26-.11.59.11.8.21.2.4.32.54.43.19.54,2.95,3.18,5.54,4.22.12,1.43.41,2.15,2.52,2.61s3.97.94,4.93,2.47c.23-.9-.64-3.8-1.15-4.37.74.48,1.36,2.03,1.5,2.46.35-.67.81-1.86.51-2.94.23-1.51.9-3.68.32-6.34h0v-.07ZM30.2,21.48c.3.48.04,1.44-.4,2.11-.43.23-.45-.18-1.29.36-2.11-1.34-2.7-3.12-3.64-4.21.98-2.43,3.37-4.54,3.93-4.79,0,0-.8,1.04-.96,1.61.99,1.5,2.02,3.34,2.1,3.95.42.65,2.43,2.17,2.51,3.57-.1-.52-1.63-2.35-2.27-2.58h0v-.02Z"></path><path class="cls-1" d="M39.03,8.67c-.95.18-1.58,1.1-1.4,2.05s1.1,1.58,2.05,1.4,1.58-1.1,1.4-2.05-1.1-1.58-2.05-1.4h0ZM39.45,10.88c-.27.05-.53-.12-.57-.39-.05-.27.12-.53.39-.57s.53.12.57.39c.05.27-.12.53-.39.57Z"></path><path class="cls-1" d="M38.42,12.89c-.13.82-.49,2.23-1.25,3.05.33.58.78,2.05-.24,3.44.08.3.26,1.29.23,1.53.75-1.03,2.07-3.9,2.31-4.54.17-.49.42-2.42.54-3.37-.04,0-.09.02-.13.03-.5.09-1,.04-1.45-.13h0Z"></path></g></g><g><g><path class="cls-1" d="M71.32,7.31h-1.32v-1.07h3.86v1.07h-1.32v3.33h-1.22v-3.33Z"></path><path class="cls-1" d="M74.4,6.24h2.08c.67,0,1.14.18,1.43.48.26.25.39.59.39,1.03h0c0,.69-.36,1.13-.91,1.36l1.05,1.53h-1.41l-.89-1.33h-.53v1.33h-1.22v-4.4ZM76.42,8.36c.42,0,.65-.2.65-.52h0c0-.36-.25-.53-.66-.53h-.8v1.06h.81Z"></path><path class="cls-1" d="M78.92,6.24h3.54v1.04h-2.33v.67h2.11v.96h-2.11v.7h2.36v1.04h-3.57v-4.4Z"></path><path class="cls-1" d="M83.14,6.24h1.23v4.4h-1.23v-4.4Z"></path><path class="cls-1" d="M85.17,6.24h1.14l1.81,2.33v-2.33h1.21v4.4h-1.07l-1.88-2.42v2.42h-1.21v-4.4Z"></path><path class="cls-1" d="M91.64,6.21h1.18l1.87,4.43h-1.31l-.32-.79h-1.7l-.31.79h-1.28l1.87-4.43ZM92.71,8.91l-.49-1.25-.5,1.25h.99Z"></path><path class="cls-1" d="M95.12,6.24h1.29l1.05,1.7,1.05-1.7h1.29v4.4h-1.21v-2.53l-1.13,1.72h-.03l-1.12-1.71v2.52h-1.2v-4.4Z"></path><path class="cls-1" d="M100.58,6.24h3.54v1.04h-2.33v.67h2.11v.96h-2.11v.7h2.36v1.04h-3.57v-4.4Z"></path><path class="cls-1" d="M104.78,6.24h1.14l1.81,2.33v-2.33h1.21v4.4h-1.07l-1.88-2.42v2.42h-1.21v-4.4Z"></path><path class="cls-1" d="M110.79,7.31h-1.32v-1.07h3.86v1.07h-1.32v3.33h-1.22v-3.33Z"></path><path class="cls-1" d="M113.53,8.46h0c0-1.28,1.02-2.3,2.38-2.3s2.36,1.01,2.36,2.28h0c0,1.28-1.02,2.3-2.38,2.3s-2.36-1.01-2.36-2.28ZM117.03,8.46h0c0-.65-.46-1.2-1.13-1.2s-1.11.54-1.11,1.18h0c0,.65.46,1.2,1.13,1.2s1.12-.54,1.12-1.18Z"></path></g><g><path class="cls-1" d="M43.86,12.01h8.11v2.46h-5.3v1.72h4.79v2.33h-4.79v3.62h-2.81v-10.13Z"></path><path class="cls-1" d="M53.24,12.01h8.15v2.39h-5.37v1.53h4.86v2.21h-4.86v1.61h5.44v2.39h-8.22v-10.13Z"></path><path class="cls-1" d="M62.91,12.01h2.97l2.42,3.92,2.42-3.92h2.97v10.13h-2.79v-5.82l-2.59,3.97h-.06l-2.58-3.94v5.79h-2.75v-10.13Z"></path><path class="cls-1" d="M75.54,12.01h2.82v10.13h-2.82v-10.13Z"></path><path class="cls-1" d="M80.21,12.01h2.62l4.17,5.36v-5.36h2.78v10.13h-2.46l-4.33-5.56v5.56h-2.78v-10.13Z"></path><path class="cls-1" d="M91.64,12.01h2.82v10.13h-2.82v-10.13Z"></path><path class="cls-1" d="M96.32,12.01h2.62l4.17,5.36v-5.36h2.78v10.13h-2.46l-4.33-5.56v5.56h-2.78v-10.13Z"></path><path class="cls-1" d="M107.34,17.1v-.03c0-2.91,2.34-5.27,5.47-5.27s5.44,2.33,5.44,5.24v.03c0,2.91-2.35,5.27-5.47,5.27s-5.44-2.33-5.44-5.24ZM115.39,17.1v-.03c0-1.46-1.06-2.74-2.61-2.74s-2.56,1.25-2.56,2.71v.03c0,1.46,1.06,2.74,2.59,2.74s2.58-1.24,2.58-2.71Z"></path></g><g><path class="cls-1" d="M43.87,23.51h1.9v.27h-1.61v.9h1.44v.27h-1.44v.92h1.63v.27h-1.92v-2.64Z"></path><path class="cls-1" d="M46.34,24.2h.29v.33c.13-.19.3-.37.63-.37s.52.17.62.39c.14-.21.35-.39.68-.39.45,0,.72.3.72.78v1.2h-.29v-1.14c0-.38-.19-.59-.5-.59-.29,0-.53.22-.53.6v1.12h-.29v-1.14c0-.37-.19-.58-.5-.58s-.54.26-.54.61v1.11h-.29v-1.95Z"></path><path class="cls-1" d="M49.78,25.58h0c0-.42.34-.64.83-.64.25,0,.43.03.6.08v-.07c0-.35-.21-.53-.58-.53-.23,0-.41.06-.59.14l-.09-.24c.21-.1.43-.16.71-.16s.49.07.63.21c.13.13.2.32.2.57v1.19h-.28v-.29c-.14.18-.36.34-.7.34-.36,0-.73-.21-.73-.61ZM51.21,25.43v-.19c-.14-.04-.34-.08-.57-.08-.37,0-.57.16-.57.4h0c0,.25.23.4.49.4.36,0,.65-.22.65-.53Z"></path><path class="cls-1" d="M52.08,26.48l.13-.23c.22.16.47.25.75.25.43,0,.71-.24.71-.69v-.23c-.17.23-.41.41-.76.41-.47,0-.92-.35-.92-.91h0c0-.58.45-.93.92-.93.37,0,.6.18.76.39v-.35h.29v1.61c0,.3-.09.53-.25.69-.17.17-.43.26-.74.26-.32,0-.63-.09-.88-.27ZM53.68,25.08h0c0-.41-.35-.67-.71-.67s-.67.26-.67.66h0c0,.4.31.67.67.67s.71-.27.71-.66Z"></path><path class="cls-1" d="M54.6,24.2h.29v.51c.14-.32.43-.56.79-.54v.31h-.02c-.43,0-.77.3-.77.89v.78h-.29v-1.95Z"></path><path class="cls-1" d="M55.93,25.17h0c0-.57.4-1.02.93-1.02.58,0,.91.46.91,1.03,0,.04,0,.06,0,.09h-1.54c.04.42.34.66.69.66.27,0,.46-.11.61-.27l.18.16c-.2.22-.43.37-.8.37-.53,0-.97-.41-.97-1.01ZM57.47,25.06c-.03-.35-.23-.66-.62-.66-.34,0-.59.28-.63.66h1.25Z"></path><path class="cls-1" d="M58.16,25.18h0c0-.56.43-1.02,1-1.02.37,0,.6.15.78.35l-.19.2c-.15-.16-.33-.29-.59-.29-.4,0-.7.34-.7.75h0c0,.43.31.76.72.76.25,0,.44-.12.59-.29l.18.17c-.2.22-.43.38-.79.38-.57,0-1-.46-1-1.01Z"></path><path class="cls-1" d="M60.43,23.45h.33v.32h-.33v-.32ZM60.45,24.2h.29v1.95h-.29v-1.95Z"></path><path class="cls-1" d="M61.42,24.2h.29v.33c.13-.19.3-.37.63-.37s.52.17.62.39c.14-.21.35-.39.68-.39.45,0,.72.3.72.78v1.2h-.29v-1.14c0-.38-.19-.59-.5-.59-.29,0-.53.22-.53.6v1.12h-.29v-1.14c0-.37-.19-.58-.5-.58s-.54.26-.54.61v1.11h-.29v-1.95Z"></path><path class="cls-1" d="M64.88,25.17h0c0-.57.4-1.02.93-1.02.58,0,.91.46.91,1.03,0,.04,0,.06,0,.09h-1.54c.04.42.34.66.69.66.27,0,.46-.11.61-.27l.18.16c-.2.22-.43.37-.8.37-.53,0-.97-.41-.97-1.01ZM66.43,25.06c-.03-.35-.23-.66-.62-.66-.34,0-.59.28-.63.66h1.25Z"></path><path class="cls-1" d="M67.23,24.2h.29v.34c.13-.21.33-.38.67-.38.47,0,.75.32.75.78v1.21h-.29v-1.14c0-.36-.2-.59-.54-.59s-.58.24-.58.61v1.11h-.29v-1.95Z"></path><path class="cls-1" d="M69.65,25.63v-1.17h-.27v-.26h.27v-.59h.29v.59h.62v.26h-.62v1.14c0,.24.13.32.33.32.1,0,.18-.02.28-.07v.25c-.1.05-.21.08-.35.08-.31,0-.55-.15-.55-.55Z"></path><path class="cls-1" d="M70.89,25.18h0c0-.56.43-1.02,1.02-1.02s1.01.46,1.01,1.01h0c0,.56-.43,1.02-1.02,1.02s-1.01-.46-1.01-1.01ZM72.63,25.18h0c0-.43-.31-.77-.72-.77s-.71.34-.71.75h0c0,.43.31.76.72.76s.72-.34.72-.75Z"></path><path class="cls-1" d="M73.22,26.47c.19-.07.27-.17.25-.33h-.14v-.4h.35v.34c0,.3-.13.45-.42.52l-.05-.13Z"></path><path class="cls-1" d="M75.47,23.51h1.9v.27h-1.61v.9h1.44v.27h-1.44v.92h1.63v.27h-1.92v-2.64Z"></path><path class="cls-1" d="M77.79,25.89l.15-.21c.21.16.44.25.67.25s.4-.12.4-.31h0c0-.2-.23-.28-.49-.35-.3-.09-.64-.19-.64-.55h0c0-.34.28-.56.66-.56.24,0,.5.08.7.21l-.13.22c-.18-.12-.39-.19-.58-.19-.23,0-.38.12-.38.28h0c0,.19.24.26.5.34.3.09.63.21.63.56h0c0,.38-.31.59-.69.59-.28,0-.59-.11-.81-.29Z"></path><path class="cls-1" d="M79.89,25.63v-1.17h-.27v-.26h.27v-.59h.29v.59h.62v.26h-.62v1.14c0,.24.13.32.33.32.1,0,.18-.02.28-.07v.25c-.1.05-.21.08-.35.08-.31,0-.55-.15-.55-.55Z"></path><path class="cls-1" d="M81.13,25.17h0c0-.57.4-1.02.93-1.02.58,0,.91.46.91,1.03,0,.04,0,.06,0,.09h-1.54c.04.42.34.66.69.66.27,0,.46-.11.61-.27l.18.16c-.2.22-.43.37-.8.37-.53,0-.97-.41-.97-1.01ZM82.68,25.06c-.03-.35-.23-.66-.62-.66-.34,0-.59.28-.63.66h1.25ZM82.3,23.36l.3.14-.43.41h-.23l.35-.55Z"></path><path class="cls-1" d="M83.58,25.63v-1.17h-.27v-.26h.27v-.59h.29v.59h.62v.26h-.62v1.14c0,.24.13.32.33.32.1,0,.18-.02.28-.07v.25c-.1.05-.21.08-.35.08-.31,0-.55-.15-.55-.55Z"></path><path class="cls-1" d="M85.01,23.45h.33v.32h-.33v-.32ZM85.03,24.2h.29v1.95h-.29v-1.95Z"></path><path class="cls-1" d="M85.87,25.18h0c0-.56.43-1.02,1-1.02.37,0,.6.15.78.35l-.19.2c-.15-.16-.33-.29-.59-.29-.4,0-.7.34-.7.75h0c0,.43.31.76.72.76.25,0,.44-.12.59-.29l.18.17c-.2.22-.43.38-.79.38-.57,0-1-.46-1-1.01Z"></path><path class="cls-1" d="M88,25.58h0c0-.42.34-.64.83-.64.25,0,.43.03.6.08v-.07c0-.35-.21-.53-.58-.53-.23,0-.41.06-.59.14l-.09-.24c.21-.1.43-.16.71-.16s.49.07.63.21c.13.13.2.32.2.57v1.19h-.28v-.29c-.14.18-.36.34-.7.34-.36,0-.73-.21-.73-.61ZM89.43,25.43v-.19c-.14-.04-.34-.08-.57-.08-.37,0-.57.16-.57.4h0c0,.25.23.4.49.4.36,0,.65-.22.65-.53Z"></path><path class="cls-1" d="M91.33,25.17h0c0-.57.4-1.02.93-1.02.58,0,.91.46.91,1.03,0,.04,0,.06,0,.09h-1.54c.04.42.34.66.69.66.27,0,.46-.11.61-.27l.18.16c-.2.22-.43.37-.8.37-.53,0-.97-.41-.97-1.01ZM92.88,25.06c-.03-.35-.23-.66-.62-.66-.34,0-.59.28-.63.66h1.25Z"></path><path class="cls-1" d="M94.86,23.51h.99c.59,0,.99.32.99.84h0c0,.58-.47.87-1.04.87h-.64v.93h-.3v-2.64ZM95.81,24.94c.44,0,.72-.23.72-.58h0c0-.38-.28-.58-.71-.58h-.67v1.16h.65Z"></path><path class="cls-1" d="M97.19,25.17h0c0-.57.4-1.02.93-1.02.58,0,.91.46.91,1.03,0,.04,0,.06,0,.09h-1.54c.04.42.34.66.69.66.27,0,.46-.11.61-.27l.18.16c-.2.22-.43.37-.8.37-.53,0-.97-.41-.97-1.01ZM98.74,25.06c-.03-.35-.23-.66-.62-.66-.34,0-.59.28-.63.66h1.25Z"></path><path class="cls-1" d="M99.54,24.2h.29v.51c.14-.32.43-.56.79-.54v.31h-.02c-.43,0-.77.3-.77.89v.78h-.29v-1.95Z"></path><path class="cls-1" d="M101.17,24.45h-.27v-.25h.27v-.17c0-.22.06-.39.17-.5.1-.1.24-.15.42-.15.14,0,.23.01.32.05v.25c-.11-.03-.18-.05-.28-.05-.23,0-.34.14-.34.41v.16h.62v.25h-.61v1.69h-.29v-1.69Z"></path><path class="cls-1" d="M102.29,25.18h0c0-.56.43-1.02,1.02-1.02s1.01.46,1.01,1.01h0c0,.56-.43,1.02-1.02,1.02s-1.01-.46-1.01-1.01ZM104.02,25.18h0c0-.43-.31-.77-.72-.77s-.71.34-.71.75h0c0,.43.31.76.72.76s.72-.34.72-.75Z"></path><path class="cls-1" d="M104.84,24.2h.29v.51c.14-.32.43-.56.79-.54v.31h-.02c-.43,0-.77.3-.77.89v.78h-.29v-1.95Z"></path><path class="cls-1" d="M106.37,24.2h.29v.33c.13-.19.3-.37.63-.37s.52.17.62.39c.14-.21.35-.39.68-.39.45,0,.72.3.72.78v1.2h-.29v-1.14c0-.38-.19-.59-.5-.59-.29,0-.53.22-.53.6v1.12h-.29v-1.14c0-.37-.19-.58-.5-.58s-.54.26-.54.61v1.11h-.29v-1.95Z"></path><path class="cls-1" d="M109.8,25.58h0c0-.42.34-.64.83-.64.25,0,.43.03.6.08v-.07c0-.35-.21-.53-.58-.53-.23,0-.41.06-.59.14l-.09-.24c.21-.1.43-.16.71-.16s.49.07.63.21c.13.13.2.32.2.57v1.19h-.28v-.29c-.14.18-.36.34-.7.34-.36,0-.73-.21-.73-.61ZM111.24,25.43v-.19c-.14-.04-.34-.08-.57-.08-.37,0-.57.16-.57.4h0c0,.25.23.4.49.4.36,0,.65-.22.65-.53Z"></path><path class="cls-1" d="M112.13,24.2h.29v.34c.13-.21.33-.38.67-.38.47,0,.75.32.75.78v1.21h-.29v-1.14c0-.36-.2-.59-.54-.59s-.58.24-.58.61v1.11h-.29v-1.95Z"></path><path class="cls-1" d="M114.33,25.18h0c0-.56.43-1.02,1-1.02.37,0,.6.15.78.35l-.19.2c-.15-.16-.33-.29-.59-.29-.4,0-.7.34-.7.75h0c0,.43.31.76.72.76.25,0,.44-.12.59-.29l.18.17c-.2.22-.43.38-.79.38-.57,0-1-.46-1-1.01Z"></path><path class="cls-1" d="M116.42,25.17h0c0-.57.4-1.02.93-1.02.58,0,.91.46.91,1.03,0,.04,0,.06,0,.09h-1.54c.04.42.34.66.69.66.27,0,.46-.11.61-.27l.18.16c-.2.22-.43.37-.8.37-.53,0-.97-.41-.97-1.01ZM117.97,25.06c-.03-.35-.23-.66-.62-.66-.34,0-.59.28-.63.66h1.25Z"></path></g></g><g><path class="cls-1" d="M47.21,7.95c-.22,0-.37.18-.37.39h0c0,.21.15.4.37.4s.37-.18.37-.39h0c0-.21-.15-.4-.38-.4Z"></path><polygon class="cls-1" points="58.84 8.5 59.17 8.5 59 8.08 58.84 8.5"></polygon><polygon class="cls-1" points="62.03 8.5 62.35 8.5 62.19 8.08 62.03 8.5"></polygon><path class="cls-1" d="M55.75,7.97h-.17v.74h.17c.24,0,.4-.13.4-.37h0c0-.24-.16-.37-.4-.37Z"></path><path class="cls-1" d="M52.71,7.97h-.27v.35h.27c.14,0,.22-.07.22-.17h0c0-.12-.08-.18-.22-.18Z"></path><polygon class="cls-1" points="54.05 8.5 54.38 8.5 54.21 8.08 54.05 8.5"></polygon><path class="cls-1" d="M69.15,6.04h-24.81c-.27,0-.48.22-.48.48v3.52c0,.27.22.48.48.48h24.81c.27,0,.48-.22.48-.48v-3.52c0-.27-.22-.48-.48-.48ZM62.01,7.17c.12,0,.26.08.33.08.06,0,.08-.03.11-.1l.19.05c-.04.21-.12.31-.26.31-.12,0-.26-.08-.33-.08-.06,0-.08.03-.11.1l-.19-.05c.04-.21.12-.31.26-.31ZM47.29,7.13l.37.12-.31.27h-.28l.22-.39ZM46.31,8.13c0,.35-.27.53-.63.53h-.2v.42h-.41v-1.46h.63c.37,0,.61.19.61.51h0ZM48,8.35c0,.42-.34.76-.79.76s-.79-.34-.79-.76h0c0-.42.34-.76.79-.76s.79.34.79.76h0ZM49.38,8.63c0,.3-.24.48-.59.48-.26,0-.51-.08-.69-.24l.23-.27c.14.12.31.18.47.18.11,0,.17-.04.17-.1h0c0-.06-.05-.1-.25-.14-.31-.07-.55-.16-.55-.46h0c0-.28.21-.47.57-.47.25,0,.44.07.6.19l-.2.29c-.13-.09-.28-.14-.41-.14-.1,0-.15.04-.15.09h0c0,.07.05.1.25.15.34.07.55.18.55.46h0ZM50.22,8.6h-.69v-.35h.69v.35ZM51.81,8.88c-.16.13-.37.23-.64.23-.46,0-.8-.31-.8-.76h0c0-.43.33-.76.79-.76.26,0,.44.08.59.21l-.24.29c-.1-.09-.21-.14-.35-.14-.21,0-.38.18-.38.4h0c0,.24.17.41.4.41.1,0,.17-.02.23-.06v-.18h-.29v-.3h.67v.66ZM52.92,9.08l-.29-.44h-.18v.44h-.41v-1.46h.69c.22,0,.38.06.48.16.09.08.13.2.13.34h0c0,.23-.12.38-.3.45l.35.51h-.47ZM54.6,9.08l-.11-.26h-.56l-.1.26h-.43l.62-1.47h.39l.62,1.47h-.43ZM56.57,8.34c0,.42-.31.74-.83.74h-.56v-1.46h.56c.52,0,.83.3.83.72h0ZM58.12,8.43c0,.47-.27.68-.69.68s-.68-.21-.68-.67v-.82h.41v.81c0,.21.11.31.27.31s.27-.1.27-.3v-.82h.41v.81ZM59.39,9.08l-.11-.26h-.56l-.1.26h-.43l.62-1.47h.39l.62,1.47h-.43ZM60.75,9.1l-.12.34-.32-.13.16-.22c-.33-.08-.56-.37-.56-.73h0c0-.43.33-.76.77-.76.3,0,.49.12.62.3l-.31.24c-.08-.1-.18-.17-.32-.17-.21,0-.35.17-.35.39h0c0,.22.14.39.35.39.15,0,.24-.07.33-.18l.31.22c-.13.17-.29.3-.57.33ZM62.58,9.08l-.11-.26h-.56l-.1.26h-.43l.62-1.47h.39l.62,1.47h-.43ZM64.68,8.35c0,.42-.34.76-.79.76s-.79-.34-.79-.76h0c0-.42.34-.76.79-.76s.79.34.79.76h0ZM66.66,9.08h-1.19v-1.46h1.18v.34h-.78v.22h.7v.32h-.7v.23h.79v.34ZM68.42,9.08h-.4v-.84l-.37.57h0l-.37-.57v.84h-.4v-1.46h.43l.35.57.35-.57h.43v1.46Z"></path><path class="cls-1" d="M45.67,7.95h-.19v.39h.19c.14,0,.23-.08.23-.19h0c0-.13-.09-.2-.23-.2Z"></path><path class="cls-1" d="M63.89,7.95c-.22,0-.37.18-.37.39h0c0,.21.15.4.38.4s.37-.18.37-.39h0c0-.21-.15-.4-.38-.4Z"></path></g></g></g></svg>